REM DIRINDEX 1\2\3,1\2\4,1\2\5,1\2\6
REM DIRNAME cjc157,folder01,folder02,folder03,folder04,folder05
TITLE ""
FILE "003 003.mp3" MP3
  TRACK 01 AUDIO
    TITLE "0:"
    INDEX 01 00:00:00
  TRACK 02 AUDIO
    TITLE "3:cjc157_0042"
    INDEX 01 00:00:11
  TRACK 03 AUDIO
    TITLE "0:"
    INDEX 01 00:01:54
  TRACK 04 AUDIO
    TITLE "4:cjc157_0043"
    INDEX 01 00:02:24
  TRACK 05 AUDIO
    TITLE "0:"
    INDEX 01 00:03:37
  TRACK 06 AUDIO
    TITLE "5:cjc157_0044"
    INDEX 01 00:04:07
  TRACK 07 AUDIO
    TITLE "0:"
    INDEX 01 00:05:73
  TRACK 08 AUDIO
    TITLE "3:cjc157_0045"
    INDEX 01 00:06:43
  TRACK 09 AUDIO
    TITLE "0:"
    INDEX 01 00:08:01
  TRACK 10 AUDIO
    TITLE "4:cjc157_0046"
    INDEX 01 00:08:46
  TRACK 11 AUDIO
    TITLE "0:"
    INDEX 01 00:09:57
  TRACK 12 AUDIO
    TITLE "5:cjc157_0047"
    INDEX 01 00:10:27
  TRACK 13 AUDIO
    TITLE "0:"
    INDEX 01 00:12:30
  TRACK 14 AUDIO
    TITLE "5:cjc157_0048"
    INDEX 01 00:13:04
  TRACK 15 AUDIO
    TITLE "0:"
    INDEX 01 00:15:40
  TRACK 16 AUDIO
    TITLE "3:cjc157_0049"
    INDEX 01 00:16:08
  TRACK 17 AUDIO
    TITLE "0:"
    INDEX 01 00:17:57
  TRACK 18 AUDIO
    TITLE "4:cjc157_0050"
    INDEX 01 00:18:31
  TRACK 19 AUDIO
    TITLE "0:"
    INDEX 01 00:19:46
  TRACK 20 AUDIO
    TITLE "5:cjc157_0051"
    INDEX 01 00:20:16
  TRACK 21 AUDIO
    TITLE "0:"
    INDEX 01 00:22:62
  TRACK 22 AUDIO
    TITLE "5:cjc157_0052"
    INDEX 01 00:23:34
  TRACK 23 AUDIO
    TITLE "0:"
    INDEX 01 00:25:50
  TRACK 24 AUDIO
    TITLE "3:cjc157_0053"
    INDEX 01 00:26:28
  TRACK 25 AUDIO
    TITLE "0:"
    INDEX 01 00:27:63
  TRACK 26 AUDIO
    TITLE "4:cjc157_0054"
    INDEX 01 00:28:33
  TRACK 27 AUDIO
    TITLE "0:"
    INDEX 01 00:29:40
  TRACK 28 AUDIO
    TITLE "5:cjc157_0055"
    INDEX 01 00:30:12
  TRACK 29 AUDIO
    TITLE "0:"
    INDEX 01 00:31:71
  TRACK 30 AUDIO
    TITLE "5:cjc157_0056"
    INDEX 01 00:32:48
  TRACK 31 AUDIO
    TITLE "0:"
    INDEX 01 00:34:69
  TRACK 32 AUDIO
    TITLE "5:cjc157_0057"
    INDEX 01 00:35:43
  TRACK 33 AUDIO
    TITLE "0:"
    INDEX 01 00:37:08
  TRACK 34 AUDIO
    TITLE "3:cjc157_0058"
    INDEX 01 00:37:54
  TRACK 35 AUDIO
    TITLE "0:"
    INDEX 01 00:39:11
  TRACK 36 AUDIO
    TITLE "4:cjc157_0059"
    INDEX 01 00:39:56
  TRACK 37 AUDIO
    TITLE "0:"
    INDEX 01 00:41:02
  TRACK 38 AUDIO
    TITLE "5:cjc157_0060"
    INDEX 01 00:41:47
  TRACK 39 AUDIO
    TITLE "0:"
    INDEX 01 00:43:52
  TRACK 40 AUDIO
    TITLE "5:cjc157_0061"
    INDEX 01 00:44:22
  TRACK 41 AUDIO
    TITLE "0:"
    INDEX 01 00:47:05
  TRACK 42 AUDIO
    TITLE "3:cjc157_0062"
    INDEX 01 00:47:50
  TRACK 43 AUDIO
    TITLE "0:"
    INDEX 01 00:49:06
  TRACK 44 AUDIO
    TITLE "4:cjc157_0063"
    INDEX 01 00:49:49
  TRACK 45 AUDIO
    TITLE "0:"
    INDEX 01 00:50:50
  TRACK 46 AUDIO
    TITLE "5:cjc157_0064"
    INDEX 01 00:51:20
  TRACK 47 AUDIO
    TITLE "0:"
    INDEX 01 00:52:57
  TRACK 48 AUDIO
    TITLE "5:cjc157_0065"
    INDEX 01 00:53:31
  TRACK 49 AUDIO
    TITLE "0:"
    INDEX 01 00:55:26
  TRACK 50 AUDIO
    TITLE "3:cjc157_0066"
    INDEX 01 00:55:73
  TRACK 51 AUDIO
    TITLE "0:"
    INDEX 01 00:57:31
  TRACK 52 AUDIO
    TITLE "4:cjc157_0067"
    INDEX 01 00:58:03
  TRACK 53 AUDIO
    TITLE "0:"
    INDEX 01 00:59:06
  TRACK 54 AUDIO
    TITLE "5:cjc157_0068"
    INDEX 01 00:59:47
  TRACK 55 AUDIO
    TITLE "0:"
    INDEX 01 01:02:18
  TRACK 56 AUDIO
    TITLE "5:cjc157_0069"
    INDEX 01 01:02:63
  TRACK 57 AUDIO
    TITLE "0:"
    INDEX 01 01:04:50
  TRACK 58 AUDIO
    TITLE "3:cjc157_0070"
    INDEX 01 01:05:24
  TRACK 59 AUDIO
    TITLE "0:"
    INDEX 01 01:06:38
  TRACK 60 AUDIO
    TITLE "4:cjc157_0071"
    INDEX 01 01:07:12
  TRACK 61 AUDIO
    TITLE "0:"
    INDEX 01 01:08:11
  TRACK 62 AUDIO
    TITLE "5:cjc157_0072"
    INDEX 01 01:08:54
  TRACK 63 AUDIO
    TITLE "0:"
    INDEX 01 01:10:73
  TRACK 64 AUDIO
    TITLE "3:cjc157_0073"
    INDEX 01 01:11:43
  TRACK 65 AUDIO
    TITLE "0:"
    INDEX 01 01:12:68
  TRACK 66 AUDIO
    TITLE "4:cjc157_0074"
    INDEX 01 01:13:44
  TRACK 67 AUDIO
    TITLE "0:"
    INDEX 01 01:14:47
  TRACK 68 AUDIO
    TITLE "5:cjc157_0075"
    INDEX 01 01:15:19
  TRACK 69 AUDIO
    TITLE "0:"
    INDEX 01 01:17:10
  TRACK 70 AUDIO
    TITLE "5:cjc157_0076"
    INDEX 01 01:17:49
  TRACK 71 AUDIO
    TITLE "0:"
    INDEX 01 01:19:30
  TRACK 72 AUDIO
    TITLE "3:cjc157_0077"
    INDEX 01 01:20:00
  TRACK 73 AUDIO
    TITLE "0:"
    INDEX 01 01:21:29
  TRACK 74 AUDIO
    TITLE "4:cjc157_0078"
    INDEX 01 01:22:03
  TRACK 75 AUDIO
    TITLE "0:"
    INDEX 01 01:23:18
  TRACK 76 AUDIO
    TITLE "5:cjc157_0079"
    INDEX 01 01:23:63
  TRACK 77 AUDIO
    TITLE "0:"
    INDEX 01 01:26:42
  TRACK 78 AUDIO
    TITLE "5:cjc157_0080"
    INDEX 01 01:27:14
  TRACK 79 AUDIO
    TITLE "0:"
    INDEX 01 01:29:60
  TRACK 80 AUDIO
    TITLE "5:cjc157_0081"
    INDEX 01 01:30:34
  TRACK 81 AUDIO
    TITLE "0:"
    INDEX 01 01:32:70
